<svg width="32" height="32" viewBox="0 0 32 32" fill="none" xmlns="http://www.w3.org/2000/svg">
  <rect width="32" height="32" rx="4" fill="#61DAFB"/>
  <circle cx="16" cy="16" r="8" fill="#ffffff"/>
  <path d="M12 14C12 13 13 12 14 12C15 12 16 13 16 14C16 15 15 16 14 16C13 16 12 15 12 14Z" fill="#61DAFB"/>
  <path d="M16 16C16 15 17 14 18 14C19 14 20 15 20 16C20 17 19 18 18 18C17 18 16 17 16 16Z" fill="#61DAFB"/>
  <path d="M14 18C14 17 15 16 16 16C17 16 18 17 18 18C18 19 17 20 16 20C15 20 14 19 14 18Z" fill="#61DAFB"/>
</svg>
